<mxfile host="app.diagrams.net" modified="2024-02-25T16:31:39.266Z" agent="Mozilla/5.0 (Windows NT 10.0; Win64; x64) AppleWebKit/537.36 (KHTML, like Gecko) Chrome/121.0.0.0 Safari/537.36" etag="CZ9-1MPbmRr0RYxvg-2Q" version="23.1.6" type="github">
  <diagram name="Page-1" id="cNXm-D4_jiNkummzE4oW">
    <mxGraphModel dx="1222" dy="809" grid="1" gridSize="10" guides="1" tooltips="1" connect="1" arrows="1" fold="1" page="1" pageScale="1" pageWidth="850" pageHeight="1100" math="0" shadow="0">
      <root>
        <mxCell id="0" />
        <mxCell id="1" parent="0" />
        <mxCell id="_2gB7NpfLI9EGCpyAIaY-1" value="" style="rounded=0;whiteSpace=wrap;html=1;labelBackgroundColor=none;movable=1;resizable=1;rotatable=1;deletable=1;editable=1;locked=0;connectable=1;" parent="1" vertex="1">
          <mxGeometry x="111.25" y="190" width="590" height="440" as="geometry" />
        </mxCell>
        <mxCell id="AKFEIR48hMGHbQ7y2gEx-4" value="" style="rounded=0;whiteSpace=wrap;html=1;rotation=90;strokeWidth=2;labelBackgroundColor=none;movable=1;resizable=1;rotatable=1;deletable=1;editable=1;locked=0;connectable=1;strokeColor=#B3B3B3;" vertex="1" parent="1">
          <mxGeometry x="50" y="303.03999999999996" width="382.5" height="218.54" as="geometry" />
        </mxCell>
        <mxCell id="AKFEIR48hMGHbQ7y2gEx-53" value="&lt;div style=&quot;&quot;&gt;&lt;font&gt;SUB-GHZ Antenna&lt;/font&gt;&lt;/div&gt;" style="rounded=0;whiteSpace=wrap;html=1;rotation=90;strokeWidth=2;align=center;labelBackgroundColor=none;movable=1;resizable=1;rotatable=1;deletable=1;editable=1;locked=0;connectable=1;strokeColor=#00CC00;" vertex="1" parent="1">
          <mxGeometry x="622.37" y="492.2" width="133.68" height="50" as="geometry" />
        </mxCell>
        <mxCell id="AKFEIR48hMGHbQ7y2gEx-3" value="" style="rounded=0;whiteSpace=wrap;html=1;rotation=90;strokeWidth=2;movable=1;resizable=1;rotatable=1;deletable=1;editable=1;locked=0;connectable=1;labelBackgroundColor=none;strokeColor=#B3B3B3;" vertex="1" parent="1">
          <mxGeometry x="416.18" y="383.29" width="205.1" height="252.75" as="geometry" />
        </mxCell>
        <mxCell id="AKFEIR48hMGHbQ7y2gEx-34" value="&lt;div style=&quot;&quot;&gt;&lt;span style=&quot;background-color: initial;&quot;&gt;Matching&lt;/span&gt;&lt;/div&gt;&lt;div style=&quot;&quot;&gt;&lt;font&gt;Network&lt;/font&gt;&lt;/div&gt;" style="rounded=0;whiteSpace=wrap;html=1;rotation=0;strokeWidth=2;align=center;movable=1;resizable=1;rotatable=1;deletable=1;editable=1;locked=0;connectable=1;labelBackgroundColor=none;strokeColor=#3399FF;" vertex="1" parent="1">
          <mxGeometry x="527.4788967359051" y="524.3650000000001" width="104.7364803165183" height="72.07" as="geometry" />
        </mxCell>
        <mxCell id="AKFEIR48hMGHbQ7y2gEx-136" value="&lt;font size=&quot;1&quot;&gt;&lt;span style=&quot;font-size: 20px;&quot;&gt;&lt;span style=&quot;font-weight: normal;&quot;&gt;etc...&lt;/span&gt;&lt;br&gt;&lt;/span&gt;&lt;/font&gt;" style="text;strokeColor=none;align=center;fillColor=none;html=1;verticalAlign=middle;whiteSpace=wrap;rounded=0;fontSize=16;fontFamily=Garamond;fontStyle=1;rotation=90;labelBackgroundColor=none;movable=1;resizable=1;rotatable=1;deletable=1;editable=1;locked=0;connectable=1;" vertex="1" parent="1">
          <mxGeometry x="152.11" y="557.98" width="140" height="30" as="geometry" />
        </mxCell>
        <mxCell id="AKFEIR48hMGHbQ7y2gEx-138" value="&lt;font size=&quot;1&quot;&gt;&lt;span style=&quot;font-size: 20px;&quot;&gt;&lt;span style=&quot;font-weight: 400; font-size: 14px;&quot;&gt;(expandable)&lt;/span&gt;&lt;br&gt;&lt;/span&gt;&lt;/font&gt;" style="text;strokeColor=none;align=center;fillColor=none;html=1;verticalAlign=middle;whiteSpace=wrap;rounded=0;fontSize=16;fontFamily=Garamond;fontStyle=1;rotation=0;labelBackgroundColor=none;movable=1;resizable=1;rotatable=1;deletable=1;editable=1;locked=0;connectable=1;" vertex="1" parent="1">
          <mxGeometry x="231.25" y="572.1999999999999" width="140" height="30" as="geometry" />
        </mxCell>
        <mxCell id="AKFEIR48hMGHbQ7y2gEx-146" value="&lt;font&gt;FSK Modulation&lt;/font&gt;" style="text;strokeColor=none;align=center;fillColor=none;html=1;verticalAlign=middle;whiteSpace=wrap;rounded=0;fontSize=16;fontFamily=Garamond;fontStyle=0;movable=1;resizable=1;rotatable=1;deletable=1;editable=1;locked=0;connectable=1;labelBackgroundColor=none;" vertex="1" parent="1">
          <mxGeometry x="706.25" y="550.0000000000001" width="140" height="30" as="geometry" />
        </mxCell>
        <mxCell id="AKFEIR48hMGHbQ7y2gEx-148" value="移動端&lt;br&gt;低速IoT異質網路&lt;br&gt;通訊系統" style="text;strokeColor=none;align=center;fillColor=none;html=1;verticalAlign=middle;whiteSpace=wrap;rounded=0;fontSize=26;fontFamily=Garamond;fontStyle=1;movable=1;resizable=1;rotatable=1;deletable=1;editable=1;locked=0;connectable=1;labelBackgroundColor=none;" vertex="1" parent="1">
          <mxGeometry x="67.10999999999996" y="70" width="270" height="30" as="geometry" />
        </mxCell>
        <mxCell id="AKFEIR48hMGHbQ7y2gEx-153" value="&lt;div style=&quot;&quot;&gt;&lt;font&gt;LTE/5G/&lt;/font&gt;&lt;/div&gt;&lt;div style=&quot;&quot;&gt;&lt;font&gt;LEO Satellite&lt;/font&gt;&lt;/div&gt;&lt;div style=&quot;&quot;&gt;&lt;font&gt;Modem&lt;/font&gt;&lt;/div&gt;" style="rounded=0;whiteSpace=wrap;html=1;rotation=0;strokeWidth=2;align=center;labelBackgroundColor=none;movable=1;resizable=1;rotatable=1;deletable=1;editable=1;locked=0;connectable=1;strokeColor=#3399FF;" vertex="1" parent="1">
          <mxGeometry x="301.11" y="119.72999999999999" width="84" height="84.27" as="geometry" />
        </mxCell>
        <mxCell id="AKFEIR48hMGHbQ7y2gEx-156" value="" style="group;movable=1;resizable=1;rotatable=1;deletable=1;editable=1;locked=0;connectable=1;" vertex="1" connectable="0" parent="1">
          <mxGeometry x="132.10999999999999" y="125" width="710.14" height="447.19500000000005" as="geometry" />
        </mxCell>
        <mxCell id="AKFEIR48hMGHbQ7y2gEx-8" value="&lt;font style=&quot;font-size: 16px;&quot;&gt;Sensor/Module&lt;br&gt;&amp;nbsp;Application&lt;/font&gt;" style="text;strokeColor=none;align=center;fillColor=none;html=1;verticalAlign=middle;whiteSpace=wrap;rounded=0;fontSize=16;fontFamily=Garamond;fontStyle=0;labelBackgroundColor=none;movable=1;resizable=1;rotatable=1;deletable=1;editable=1;locked=0;connectable=1;" vertex="1" parent="AKFEIR48hMGHbQ7y2gEx-156">
          <mxGeometry y="100.19" width="140" height="30" as="geometry" />
        </mxCell>
        <mxCell id="AKFEIR48hMGHbQ7y2gEx-12" value="&lt;div style=&quot;&quot;&gt;&lt;span style=&quot;&quot;&gt;AHT10&lt;/span&gt;&lt;/div&gt;" style="rounded=0;whiteSpace=wrap;html=1;rotation=0;strokeWidth=2;align=center;labelBackgroundColor=none;movable=1;resizable=1;rotatable=1;deletable=1;editable=1;locked=0;connectable=1;strokeColor=#3399FF;" vertex="1" parent="AKFEIR48hMGHbQ7y2gEx-156">
          <mxGeometry x="20" y="144" width="140" height="54.27" as="geometry" />
        </mxCell>
        <mxCell id="AKFEIR48hMGHbQ7y2gEx-46" value="" style="group;movable=1;resizable=1;rotatable=1;deletable=1;editable=1;locked=0;connectable=1;labelBackgroundColor=none;" vertex="1" connectable="0" parent="AKFEIR48hMGHbQ7y2gEx-156">
          <mxGeometry x="270.26" y="79" width="232.49999999999994" height="260" as="geometry" />
        </mxCell>
        <mxCell id="AKFEIR48hMGHbQ7y2gEx-2" value="" style="rounded=0;whiteSpace=wrap;html=1;rotation=90;strokeWidth=2;movable=1;resizable=1;rotatable=1;deletable=1;editable=1;locked=0;connectable=1;labelBackgroundColor=none;strokeColor=#B3B3B3;" vertex="1" parent="AKFEIR48hMGHbQ7y2gEx-46">
          <mxGeometry x="31.72" y="-44" width="181.22" height="263.81" as="geometry" />
        </mxCell>
        <mxCell id="AKFEIR48hMGHbQ7y2gEx-14" value="&lt;div style=&quot;&quot;&gt;&lt;font&gt;ESP32-D0WD-V3&lt;/font&gt;&lt;/div&gt;" style="rounded=0;whiteSpace=wrap;html=1;rotation=0;strokeWidth=2;align=center;movable=1;resizable=1;rotatable=1;deletable=1;editable=1;locked=0;connectable=1;labelBackgroundColor=none;strokeColor=#3399FF;" vertex="1" parent="AKFEIR48hMGHbQ7y2gEx-46">
          <mxGeometry x="15.279999999999944" y="38.02999999999999" width="104.68" height="120" as="geometry" />
        </mxCell>
        <mxCell id="AKFEIR48hMGHbQ7y2gEx-15" value="&lt;div style=&quot;&quot;&gt;&lt;font&gt;SPI FLASH&lt;/font&gt;&lt;/div&gt;" style="rounded=0;whiteSpace=wrap;html=1;rotation=0;strokeWidth=2;align=center;movable=1;resizable=1;rotatable=1;deletable=1;editable=1;locked=0;connectable=1;labelBackgroundColor=none;strokeColor=#3399FF;" vertex="1" parent="AKFEIR48hMGHbQ7y2gEx-46">
          <mxGeometry x="149.72" y="101.77999999999999" width="78.78" height="56.25" as="geometry" />
        </mxCell>
        <mxCell id="AKFEIR48hMGHbQ7y2gEx-17" value="&lt;font&gt;2.4 GHZ&lt;br&gt;Antenna&lt;br&gt;&lt;/font&gt;" style="rounded=0;whiteSpace=wrap;html=1;rotation=0;strokeWidth=2;align=center;movable=1;resizable=1;rotatable=1;deletable=1;editable=1;locked=0;connectable=1;labelBackgroundColor=none;strokeColor=#00CC00;" vertex="1" parent="AKFEIR48hMGHbQ7y2gEx-46">
          <mxGeometry x="108.49999999999997" y="-28.36" width="120" height="36" as="geometry" />
        </mxCell>
        <mxCell id="AKFEIR48hMGHbQ7y2gEx-19" value="&lt;font&gt;40 MHZ&lt;br&gt;oscillator&lt;/font&gt;" style="rounded=0;whiteSpace=wrap;html=1;rotation=0;strokeWidth=2;align=center;movable=1;resizable=1;rotatable=1;deletable=1;editable=1;locked=0;connectable=1;labelBackgroundColor=none;strokeColor=#3399FF;" vertex="1" parent="AKFEIR48hMGHbQ7y2gEx-46">
          <mxGeometry x="159.72" y="40.08999999999999" width="68.78" height="40" as="geometry" />
        </mxCell>
        <mxCell id="AKFEIR48hMGHbQ7y2gEx-24" value="" style="endArrow=blockThin;startArrow=blockThin;html=1;rounded=0;entryX=0;entryY=0.5;entryDx=0;entryDy=0;startFill=1;endFill=1;movable=1;resizable=1;rotatable=1;deletable=1;editable=1;locked=0;connectable=1;fontColor=default;labelBackgroundColor=none;" edge="1" parent="AKFEIR48hMGHbQ7y2gEx-46" target="AKFEIR48hMGHbQ7y2gEx-19">
          <mxGeometry width="50" height="50" relative="1" as="geometry">
            <mxPoint x="118.49999999999997" y="61.02999999999999" as="sourcePoint" />
            <mxPoint x="68.49999999999997" y="51.02999999999999" as="targetPoint" />
          </mxGeometry>
        </mxCell>
        <mxCell id="AKFEIR48hMGHbQ7y2gEx-25" value="" style="endArrow=blockThin;startArrow=blockThin;html=1;rounded=0;startFill=1;endFill=1;movable=1;resizable=1;rotatable=1;deletable=1;editable=1;locked=0;connectable=1;fontColor=default;labelBackgroundColor=none;" edge="1" parent="AKFEIR48hMGHbQ7y2gEx-46" target="AKFEIR48hMGHbQ7y2gEx-15">
          <mxGeometry width="50" height="50" relative="1" as="geometry">
            <mxPoint x="119.95999999999995" y="132.02999999999997" as="sourcePoint" />
            <mxPoint x="138.49999999999997" y="131.02999999999997" as="targetPoint" />
          </mxGeometry>
        </mxCell>
        <mxCell id="AKFEIR48hMGHbQ7y2gEx-27" value="" style="endArrow=blockThin;startArrow=blockThin;html=1;rounded=0;startFill=1;endFill=1;exitX=0;exitY=1;exitDx=0;exitDy=0;entryX=0.949;entryY=0.017;entryDx=0;entryDy=0;entryPerimeter=0;movable=1;resizable=1;rotatable=1;deletable=1;editable=1;locked=0;connectable=1;fontColor=default;labelBackgroundColor=none;" edge="1" parent="AKFEIR48hMGHbQ7y2gEx-46">
          <mxGeometry width="50" height="50" relative="1" as="geometry">
            <mxPoint x="117.03999999999999" y="8.029999999999987" as="sourcePoint" />
            <mxPoint x="117.04131999999996" y="38.030000000000044" as="targetPoint" />
          </mxGeometry>
        </mxCell>
        <mxCell id="AKFEIR48hMGHbQ7y2gEx-28" value="&lt;font&gt;&lt;span style=&quot;font-size: 12px;&quot;&gt;SPI&lt;/span&gt;&lt;/font&gt;" style="text;strokeColor=none;align=center;fillColor=none;html=1;verticalAlign=middle;whiteSpace=wrap;rounded=0;fontSize=16;fontFamily=Garamond;fontStyle=0;movable=1;resizable=1;rotatable=1;deletable=1;editable=1;locked=0;connectable=1;labelBackgroundColor=none;" vertex="1" parent="AKFEIR48hMGHbQ7y2gEx-46">
          <mxGeometry x="74.49999999999997" y="110.02999999999999" width="120" height="20.75" as="geometry" />
        </mxCell>
        <mxCell id="AKFEIR48hMGHbQ7y2gEx-10" value="&lt;font&gt;32-bit MCU&lt;/font&gt;" style="text;strokeColor=none;align=center;fillColor=none;html=1;verticalAlign=middle;whiteSpace=wrap;rounded=0;fontSize=16;fontFamily=Garamond;fontStyle=0;movable=1;resizable=1;rotatable=1;deletable=1;editable=1;locked=0;connectable=1;labelBackgroundColor=none;" vertex="1" parent="AKFEIR48hMGHbQ7y2gEx-46">
          <mxGeometry x="-31.499999999999993" width="140" height="30" as="geometry" />
        </mxCell>
        <mxCell id="AKFEIR48hMGHbQ7y2gEx-94" value="&lt;p style=&quot;line-height: 60%;&quot;&gt;&lt;font&gt;&lt;span style=&quot;font-size: 12px;&quot;&gt;UART&lt;br&gt;Interface&lt;/span&gt;&lt;/font&gt;&lt;/p&gt;" style="text;strokeColor=none;align=center;fillColor=none;html=1;verticalAlign=middle;whiteSpace=wrap;rounded=0;fontSize=16;fontFamily=Garamond;fontStyle=0;movable=1;resizable=1;rotatable=1;deletable=1;editable=1;locked=0;connectable=1;labelBackgroundColor=none;" vertex="1" parent="AKFEIR48hMGHbQ7y2gEx-46">
          <mxGeometry x="11.279999999999914" y="180" width="120" height="20.75" as="geometry" />
        </mxCell>
        <mxCell id="AKFEIR48hMGHbQ7y2gEx-33" value="&lt;div style=&quot;&quot;&gt;&lt;span style=&quot;&quot;&gt;SX1262&lt;/span&gt;&lt;/div&gt;" style="rounded=0;whiteSpace=wrap;html=1;rotation=0;strokeWidth=2;align=center;movable=1;resizable=1;rotatable=1;deletable=1;editable=1;locked=0;connectable=1;labelBackgroundColor=none;strokeColor=#3399FF;" vertex="1" parent="AKFEIR48hMGHbQ7y2gEx-156">
          <mxGeometry x="270.2599000989119" y="367.19500000000005" width="82.73450761622156" height="80" as="geometry" />
        </mxCell>
        <mxCell id="AKFEIR48hMGHbQ7y2gEx-38" value="&lt;div style=&quot;&quot;&gt;&lt;font&gt;LPF&lt;/font&gt;&lt;/div&gt;" style="rounded=0;whiteSpace=wrap;html=1;rotation=0;strokeWidth=2;align=center;movable=1;resizable=1;rotatable=1;deletable=1;editable=1;locked=0;connectable=1;labelBackgroundColor=none;strokeColor=#3399FF;" vertex="1" parent="AKFEIR48hMGHbQ7y2gEx-156">
          <mxGeometry x="395.3688967359051" y="344.92500000000007" width="104.7364803165183" height="43.44" as="geometry" />
        </mxCell>
        <mxCell id="AKFEIR48hMGHbQ7y2gEx-42" value="" style="endArrow=blockThin;startArrow=blockThin;html=1;rounded=0;startFill=1;endFill=1;entryX=0;entryY=0.75;entryDx=0;entryDy=0;movable=1;resizable=1;rotatable=1;deletable=1;editable=1;locked=0;connectable=1;exitX=1.015;exitY=0.139;exitDx=0;exitDy=0;exitPerimeter=0;fontColor=default;labelBackgroundColor=none;" edge="1" parent="AKFEIR48hMGHbQ7y2gEx-156" source="AKFEIR48hMGHbQ7y2gEx-33">
          <mxGeometry width="50" height="50" relative="1" as="geometry">
            <mxPoint x="356.26" y="378.2" as="sourcePoint" />
            <mxPoint x="394.85928407517304" y="377.92500000000007" as="targetPoint" />
          </mxGeometry>
        </mxCell>
        <mxCell id="AKFEIR48hMGHbQ7y2gEx-43" value="" style="endArrow=blockThin;startArrow=blockThin;html=1;rounded=0;startFill=1;endFill=1;entryX=0;entryY=0.75;entryDx=0;entryDy=0;movable=1;resizable=1;rotatable=1;deletable=1;editable=1;locked=0;connectable=1;exitX=1.019;exitY=0.746;exitDx=0;exitDy=0;exitPerimeter=0;fontColor=default;labelBackgroundColor=none;" edge="1" parent="AKFEIR48hMGHbQ7y2gEx-156" source="AKFEIR48hMGHbQ7y2gEx-33">
          <mxGeometry width="50" height="50" relative="1" as="geometry">
            <mxPoint x="355.2867531157269" y="426.92500000000007" as="sourcePoint" />
            <mxPoint x="394.0616294757665" y="426.92500000000007" as="targetPoint" />
          </mxGeometry>
        </mxCell>
        <mxCell id="AKFEIR48hMGHbQ7y2gEx-72" value="&lt;font&gt;&lt;span style=&quot;font-size: 12px;&quot;&gt;RX&lt;/span&gt;&lt;/font&gt;" style="text;strokeColor=none;align=center;fillColor=none;html=1;verticalAlign=middle;whiteSpace=wrap;rounded=0;fontSize=16;fontFamily=Garamond;fontStyle=0;movable=1;resizable=1;rotatable=1;deletable=1;editable=1;locked=0;connectable=1;labelBackgroundColor=none;" vertex="1" parent="AKFEIR48hMGHbQ7y2gEx-156">
          <mxGeometry x="462.26" y="342.93" width="120" height="20.75" as="geometry" />
        </mxCell>
        <mxCell id="AKFEIR48hMGHbQ7y2gEx-84" value="&lt;font&gt;&lt;span style=&quot;font-size: 12px;&quot;&gt;TX&lt;/span&gt;&lt;/font&gt;" style="text;strokeColor=none;align=center;fillColor=none;html=1;verticalAlign=middle;whiteSpace=wrap;rounded=0;fontSize=16;fontFamily=Garamond;fontStyle=0;movable=1;resizable=1;rotatable=1;deletable=1;editable=1;locked=0;connectable=1;labelBackgroundColor=none;" vertex="1" parent="AKFEIR48hMGHbQ7y2gEx-156">
          <mxGeometry x="463.26" y="412.23" width="120" height="20.75" as="geometry" />
        </mxCell>
        <mxCell id="AKFEIR48hMGHbQ7y2gEx-9" value="&lt;font&gt;LoRa Modem&lt;/font&gt;" style="text;strokeColor=none;align=center;fillColor=none;html=1;verticalAlign=middle;whiteSpace=wrap;rounded=0;fontSize=16;fontFamily=Garamond;fontStyle=0;labelBackgroundColor=none;movable=1;resizable=1;rotatable=1;deletable=1;editable=1;locked=0;connectable=1;" vertex="1" parent="AKFEIR48hMGHbQ7y2gEx-156">
          <mxGeometry x="370.19067754698324" y="296.005" width="155.09950544015828" height="30" as="geometry" />
        </mxCell>
        <mxCell id="AKFEIR48hMGHbQ7y2gEx-59" value="" style="endArrow=blockThin;html=1;rounded=0;strokeWidth=1;endFill=1;exitX=0.311;exitY=1.024;exitDx=0;exitDy=0;exitPerimeter=0;fontColor=default;labelBackgroundColor=none;movable=1;resizable=1;rotatable=1;deletable=1;editable=1;locked=0;connectable=1;" edge="1" parent="AKFEIR48hMGHbQ7y2gEx-156" source="AKFEIR48hMGHbQ7y2gEx-53">
          <mxGeometry width="50" height="50" relative="1" as="geometry">
            <mxPoint x="450.26" y="417.20000000000005" as="sourcePoint" />
            <mxPoint x="500.26" y="367.2" as="targetPoint" />
          </mxGeometry>
        </mxCell>
        <mxCell id="AKFEIR48hMGHbQ7y2gEx-54" value="" style="endArrow=blockThin;html=1;rounded=0;strokeWidth=1;endFill=1;entryX=0.821;entryY=1.028;entryDx=0;entryDy=0;entryPerimeter=0;exitX=1;exitY=0.5;exitDx=0;exitDy=0;fontColor=default;labelBackgroundColor=none;movable=1;resizable=1;rotatable=1;deletable=1;editable=1;locked=0;connectable=1;" edge="1" parent="AKFEIR48hMGHbQ7y2gEx-156" source="AKFEIR48hMGHbQ7y2gEx-34" target="AKFEIR48hMGHbQ7y2gEx-53">
          <mxGeometry width="50" height="50" relative="1" as="geometry">
            <mxPoint x="510.26" y="437.20000000000005" as="sourcePoint" />
            <mxPoint x="530.26" y="434.20000000000005" as="targetPoint" />
          </mxGeometry>
        </mxCell>
        <mxCell id="AKFEIR48hMGHbQ7y2gEx-101" value="" style="endArrow=blockThin;startArrow=blockThin;html=1;rounded=0;endFill=1;startFill=1;exitX=0.25;exitY=0;exitDx=0;exitDy=0;entryX=0.191;entryY=1.012;entryDx=0;entryDy=0;entryPerimeter=0;fontColor=default;labelBackgroundColor=none;movable=1;resizable=1;rotatable=1;deletable=1;editable=1;locked=0;connectable=1;" edge="1" parent="AKFEIR48hMGHbQ7y2gEx-156">
          <mxGeometry width="50" height="50" relative="1" as="geometry">
            <mxPoint x="291.6535270029673" y="367.19500000000005" as="sourcePoint" />
            <mxPoint x="291.76608" y="341.8144" as="targetPoint" />
          </mxGeometry>
        </mxCell>
        <mxCell id="AKFEIR48hMGHbQ7y2gEx-96" value="&lt;div style=&quot;&quot;&gt;&lt;span style=&quot;&quot;&gt;8-bit MCU&lt;/span&gt;&lt;/div&gt;" style="rounded=0;whiteSpace=wrap;html=1;rotation=0;strokeWidth=2;align=center;movable=1;resizable=1;rotatable=1;deletable=1;editable=1;locked=0;connectable=1;labelBackgroundColor=none;strokeColor=#3399FF;" vertex="1" parent="AKFEIR48hMGHbQ7y2gEx-156">
          <mxGeometry x="270.26" y="290" width="108.88" height="51.2" as="geometry" />
        </mxCell>
        <mxCell id="AKFEIR48hMGHbQ7y2gEx-103" value="&lt;font&gt;&lt;span style=&quot;font-size: 12px;&quot;&gt;SPI&lt;/span&gt;&lt;/font&gt;" style="text;strokeColor=none;align=center;fillColor=none;html=1;verticalAlign=middle;whiteSpace=wrap;rounded=0;fontSize=16;fontFamily=Garamond;fontStyle=0;movable=1;resizable=1;rotatable=1;deletable=1;editable=1;locked=0;connectable=1;labelBackgroundColor=none;" vertex="1" parent="AKFEIR48hMGHbQ7y2gEx-156">
          <mxGeometry x="251.63000000000002" y="342.93" width="120" height="20.75" as="geometry" />
        </mxCell>
        <mxCell id="AKFEIR48hMGHbQ7y2gEx-109" value="" style="endArrow=blockThin;startArrow=blockThin;html=1;rounded=0;startFill=1;endFill=1;exitX=0.111;exitY=1.014;exitDx=0;exitDy=0;movable=1;resizable=1;rotatable=1;deletable=1;editable=1;locked=0;connectable=1;exitPerimeter=0;entryX=0.342;entryY=-0.027;entryDx=0;entryDy=0;entryPerimeter=0;fontColor=default;labelBackgroundColor=none;" edge="1" parent="AKFEIR48hMGHbQ7y2gEx-156" target="AKFEIR48hMGHbQ7y2gEx-96">
          <mxGeometry width="50" height="50" relative="1" as="geometry">
            <mxPoint x="307.1594799999999" y="237.70999999999998" as="sourcePoint" />
            <mxPoint x="307.14" y="285" as="targetPoint" />
          </mxGeometry>
        </mxCell>
        <mxCell id="AKFEIR48hMGHbQ7y2gEx-116" value="&lt;div style=&quot;&quot;&gt;U&lt;font&gt;U-blox NEO-6M&lt;/font&gt;&lt;/div&gt;&lt;div style=&quot;&quot;&gt;&lt;font&gt;GPS&lt;/font&gt;&lt;/div&gt;" style="rounded=0;whiteSpace=wrap;html=1;rotation=0;strokeWidth=2;align=center;labelBackgroundColor=none;movable=1;resizable=1;rotatable=1;deletable=1;editable=1;locked=0;connectable=1;strokeColor=#3399FF;" vertex="1" parent="AKFEIR48hMGHbQ7y2gEx-156">
          <mxGeometry x="20.00000000000003" y="285" width="129.14" height="60" as="geometry" />
        </mxCell>
        <mxCell id="AKFEIR48hMGHbQ7y2gEx-117" value="&lt;div style=&quot;&quot;&gt;&lt;font&gt;DS1302 RTC&lt;/font&gt;&lt;/div&gt;" style="rounded=0;whiteSpace=wrap;html=1;rotation=0;strokeWidth=2;align=center;labelBackgroundColor=none;movable=1;resizable=1;rotatable=1;deletable=1;editable=1;locked=0;connectable=1;strokeColor=#3399FF;" vertex="1" parent="AKFEIR48hMGHbQ7y2gEx-156">
          <mxGeometry x="20.00000000000003" y="355.64000000000004" width="129.14" height="60" as="geometry" />
        </mxCell>
        <mxCell id="AKFEIR48hMGHbQ7y2gEx-119" value="&lt;div style=&quot;&quot;&gt;&lt;span style=&quot;&quot;&gt;0.96&quot; OLED Screen&lt;/span&gt;&lt;/div&gt;" style="rounded=0;whiteSpace=wrap;html=1;rotation=0;strokeWidth=2;align=center;labelBackgroundColor=none;movable=1;resizable=1;rotatable=1;deletable=1;editable=1;locked=0;connectable=1;strokeColor=#3399FF;" vertex="1" parent="AKFEIR48hMGHbQ7y2gEx-156">
          <mxGeometry x="20" y="215" width="140" height="54.27" as="geometry" />
        </mxCell>
        <mxCell id="AKFEIR48hMGHbQ7y2gEx-121" value="" style="endArrow=blockThin;startArrow=blockThin;html=1;rounded=0;startFill=1;endFill=1;exitX=0;exitY=0.5;exitDx=0;exitDy=0;entryX=1.01;entryY=0.617;entryDx=0;entryDy=0;movable=1;resizable=1;rotatable=1;deletable=1;editable=1;locked=0;connectable=1;entryPerimeter=0;fontColor=default;labelBackgroundColor=none;" edge="1" parent="AKFEIR48hMGHbQ7y2gEx-156" source="AKFEIR48hMGHbQ7y2gEx-14" target="AKFEIR48hMGHbQ7y2gEx-12">
          <mxGeometry width="50" height="50" relative="1" as="geometry">
            <mxPoint x="169.13947999999996" y="145.91999999999996" as="sourcePoint" />
            <mxPoint x="169.46000000000006" y="216.20999999999998" as="targetPoint" />
          </mxGeometry>
        </mxCell>
        <mxCell id="AKFEIR48hMGHbQ7y2gEx-122" value="" style="endArrow=blockThin;startArrow=blockThin;html=1;rounded=0;startFill=1;endFill=1;entryX=1.008;entryY=0.192;entryDx=0;entryDy=0;movable=1;resizable=1;rotatable=1;deletable=1;editable=1;locked=0;connectable=1;entryPerimeter=0;fontColor=default;labelBackgroundColor=none;" edge="1" parent="AKFEIR48hMGHbQ7y2gEx-156">
          <mxGeometry width="50" height="50" relative="1" as="geometry">
            <mxPoint x="284.03999999999996" y="219" as="sourcePoint" />
            <mxPoint x="161.12000000000003" y="219.41984000000002" as="targetPoint" />
          </mxGeometry>
        </mxCell>
        <mxCell id="AKFEIR48hMGHbQ7y2gEx-123" value="" style="endArrow=blockThin;startArrow=blockThin;html=1;rounded=0;startFill=1;endFill=1;movable=1;resizable=1;rotatable=1;deletable=1;editable=1;locked=0;connectable=1;exitX=0.102;exitY=0.748;exitDx=0;exitDy=0;exitPerimeter=0;entryX=1;entryY=0.5;entryDx=0;entryDy=0;fontColor=default;labelBackgroundColor=none;" edge="1" parent="AKFEIR48hMGHbQ7y2gEx-156">
          <mxGeometry width="50" height="50" relative="1" as="geometry">
            <mxPoint x="283.994" y="226.615" as="sourcePoint" />
            <mxPoint x="149.14000000000001" y="311" as="targetPoint" />
            <Array as="points">
              <mxPoint x="200.14000000000001" y="227" />
              <mxPoint x="200.14000000000001" y="311" />
            </Array>
          </mxGeometry>
        </mxCell>
        <mxCell id="AKFEIR48hMGHbQ7y2gEx-125" value="" style="endArrow=blockThin;startArrow=blockThin;html=1;rounded=0;startFill=1;endFill=1;entryX=1.005;entryY=0.154;entryDx=0;entryDy=0;movable=1;resizable=1;rotatable=1;deletable=1;editable=1;locked=0;connectable=1;entryPerimeter=0;exitX=-0.015;exitY=0.975;exitDx=0;exitDy=0;exitPerimeter=0;fontColor=default;labelBackgroundColor=none;" edge="1" parent="AKFEIR48hMGHbQ7y2gEx-156" source="AKFEIR48hMGHbQ7y2gEx-14" target="AKFEIR48hMGHbQ7y2gEx-117">
          <mxGeometry width="50" height="50" relative="1" as="geometry">
            <mxPoint x="293.994" y="240.615" as="sourcePoint" />
            <mxPoint x="160.14000000000001" y="365.58" as="targetPoint" />
            <Array as="points">
              <mxPoint x="210.14000000000001" y="235" />
              <mxPoint x="210.14000000000001" y="365" />
            </Array>
          </mxGeometry>
        </mxCell>
        <mxCell id="AKFEIR48hMGHbQ7y2gEx-127" value="&lt;p style=&quot;line-height: 60%;&quot;&gt;&lt;font&gt;&lt;span style=&quot;font-size: 12px;&quot;&gt;UART&lt;/span&gt;&lt;/font&gt;&lt;/p&gt;" style="text;strokeColor=none;align=center;fillColor=none;html=1;verticalAlign=middle;whiteSpace=wrap;rounded=0;fontSize=16;fontFamily=Garamond;fontStyle=0;movable=1;resizable=1;rotatable=1;deletable=1;editable=1;locked=0;connectable=1;labelBackgroundColor=none;" vertex="1" parent="AKFEIR48hMGHbQ7y2gEx-156">
          <mxGeometry x="119.13999999999996" y="289.25" width="120" height="20.75" as="geometry" />
        </mxCell>
        <mxCell id="AKFEIR48hMGHbQ7y2gEx-130" value="&lt;p style=&quot;line-height: 60%;&quot;&gt;&lt;font&gt;&lt;span style=&quot;font-size: 12px;&quot;&gt;I2C&lt;/span&gt;&lt;/font&gt;&lt;/p&gt;" style="text;strokeColor=none;align=center;fillColor=none;html=1;verticalAlign=middle;whiteSpace=wrap;rounded=0;fontSize=16;fontFamily=Garamond;fontStyle=0;movable=1;resizable=1;rotatable=1;deletable=1;editable=1;locked=0;connectable=1;labelBackgroundColor=none;" vertex="1" parent="AKFEIR48hMGHbQ7y2gEx-156">
          <mxGeometry x="132.99999999999997" y="156.53999999999996" width="120" height="20.75" as="geometry" />
        </mxCell>
        <mxCell id="AKFEIR48hMGHbQ7y2gEx-134" value="&lt;p style=&quot;line-height: 60%;&quot;&gt;&lt;font&gt;&lt;span style=&quot;font-size: 12px;&quot;&gt;I2C&lt;/span&gt;&lt;/font&gt;&lt;/p&gt;" style="text;strokeColor=none;align=center;fillColor=none;html=1;verticalAlign=middle;whiteSpace=wrap;rounded=0;fontSize=16;fontFamily=Garamond;fontStyle=0;movable=1;resizable=1;rotatable=1;deletable=1;editable=1;locked=0;connectable=1;labelBackgroundColor=none;" vertex="1" parent="AKFEIR48hMGHbQ7y2gEx-156">
          <mxGeometry x="132.99999999999997" y="198.63" width="120" height="20.75" as="geometry" />
        </mxCell>
        <mxCell id="AKFEIR48hMGHbQ7y2gEx-140" value="&lt;font&gt;&lt;span style=&quot;font-size: 12px;&quot;&gt;SPI&lt;/span&gt;&lt;/font&gt;" style="text;strokeColor=none;align=center;fillColor=none;html=1;verticalAlign=middle;whiteSpace=wrap;rounded=0;fontSize=16;fontFamily=Garamond;fontStyle=0;movable=1;resizable=1;rotatable=1;deletable=1;editable=1;locked=0;connectable=1;labelBackgroundColor=none;" vertex="1" parent="AKFEIR48hMGHbQ7y2gEx-156">
          <mxGeometry x="118.14000000000001" y="343.93" width="120" height="20.75" as="geometry" />
        </mxCell>
        <mxCell id="AKFEIR48hMGHbQ7y2gEx-142" value="" style="endArrow=block;html=1;rounded=0;endFill=1;strokeWidth=2;startArrow=block;startFill=1;fontColor=default;labelBackgroundColor=none;movable=1;resizable=1;rotatable=1;deletable=1;editable=1;locked=0;connectable=1;" edge="1" parent="AKFEIR48hMGHbQ7y2gEx-156">
          <mxGeometry width="50" height="50" relative="1" as="geometry">
            <mxPoint x="472.89" y="50" as="sourcePoint" />
            <mxPoint x="472.89" as="targetPoint" />
          </mxGeometry>
        </mxCell>
        <mxCell id="AKFEIR48hMGHbQ7y2gEx-143" value="" style="endArrow=block;html=1;rounded=0;endFill=1;strokeWidth=2;startArrow=block;startFill=1;fontColor=default;labelBackgroundColor=none;movable=1;resizable=1;rotatable=1;deletable=1;editable=1;locked=0;connectable=1;" edge="1" parent="AKFEIR48hMGHbQ7y2gEx-156">
          <mxGeometry width="50" height="50" relative="1" as="geometry">
            <mxPoint x="406.89" y="50" as="sourcePoint" />
            <mxPoint x="406.89" as="targetPoint" />
          </mxGeometry>
        </mxCell>
        <mxCell id="AKFEIR48hMGHbQ7y2gEx-145" value="&lt;font&gt;BLE 5.0&lt;/font&gt;" style="text;strokeColor=none;align=center;fillColor=none;html=1;verticalAlign=middle;whiteSpace=wrap;rounded=0;fontSize=16;fontFamily=Garamond;fontStyle=0;movable=1;resizable=1;rotatable=1;deletable=1;editable=1;locked=0;connectable=1;labelBackgroundColor=none;" vertex="1" parent="AKFEIR48hMGHbQ7y2gEx-156">
          <mxGeometry x="303.89" y="9" width="140" height="30" as="geometry" />
        </mxCell>
        <mxCell id="AKFEIR48hMGHbQ7y2gEx-147" value="" style="endArrow=block;html=1;rounded=0;endFill=1;strokeWidth=2;startArrow=block;startFill=1;exitX=0.443;exitY=-0.021;exitDx=0;exitDy=0;exitPerimeter=0;fontColor=default;labelBackgroundColor=none;movable=1;resizable=1;rotatable=1;deletable=1;editable=1;locked=0;connectable=1;" edge="1" parent="AKFEIR48hMGHbQ7y2gEx-156">
          <mxGeometry width="50" height="50" relative="1" as="geometry">
            <mxPoint x="582.2600000000001" y="388.36024" as="sourcePoint" />
            <mxPoint x="636.89" y="389.16999999999996" as="targetPoint" />
          </mxGeometry>
        </mxCell>
        <mxCell id="AKFEIR48hMGHbQ7y2gEx-149" value="" style="endArrow=block;html=1;rounded=0;endFill=1;strokeWidth=2;startArrow=block;startFill=1;exitX=0.443;exitY=-0.021;exitDx=0;exitDy=0;exitPerimeter=0;fontColor=default;labelBackgroundColor=none;movable=1;resizable=1;rotatable=1;deletable=1;editable=1;locked=0;connectable=1;" edge="1" parent="AKFEIR48hMGHbQ7y2gEx-156">
          <mxGeometry width="50" height="50" relative="1" as="geometry">
            <mxPoint x="583.2600000000001" y="417.20024" as="sourcePoint" />
            <mxPoint x="637.89" y="418.01" as="targetPoint" />
          </mxGeometry>
        </mxCell>
        <mxCell id="AKFEIR48hMGHbQ7y2gEx-150" value="&lt;font&gt;LoRa 915MHZ&lt;/font&gt;" style="text;strokeColor=none;align=center;fillColor=none;html=1;verticalAlign=middle;whiteSpace=wrap;rounded=0;fontSize=16;fontFamily=Garamond;fontStyle=0;movable=1;resizable=1;rotatable=1;deletable=1;editable=1;locked=0;connectable=1;labelBackgroundColor=none;" vertex="1" parent="AKFEIR48hMGHbQ7y2gEx-156">
          <mxGeometry x="570.14" y="356.36" width="140" height="30" as="geometry" />
        </mxCell>
        <mxCell id="AKFEIR48hMGHbQ7y2gEx-154" value="" style="endArrow=blockThin;startArrow=blockThin;html=1;rounded=0;startFill=1;endFill=1;exitX=-0.014;exitY=0.229;exitDx=0;exitDy=0;entryX=0.75;entryY=1;entryDx=0;entryDy=0;movable=1;resizable=1;rotatable=1;deletable=1;editable=1;locked=0;connectable=1;exitPerimeter=0;fontColor=default;labelBackgroundColor=none;" edge="1" parent="AKFEIR48hMGHbQ7y2gEx-156" source="AKFEIR48hMGHbQ7y2gEx-14" target="AKFEIR48hMGHbQ7y2gEx-153">
          <mxGeometry width="50" height="50" relative="1" as="geometry">
            <mxPoint x="311.89" y="119.09" as="sourcePoint" />
            <mxPoint x="187.89000000000001" y="119.09" as="targetPoint" />
            <Array as="points">
              <mxPoint x="231.89000000000001" y="145" />
            </Array>
          </mxGeometry>
        </mxCell>
        <mxCell id="AKFEIR48hMGHbQ7y2gEx-155" value="&lt;font&gt;Wi-Fi 2.4G&lt;/font&gt;" style="text;strokeColor=none;align=center;fillColor=none;html=1;verticalAlign=middle;whiteSpace=wrap;rounded=0;fontSize=16;fontFamily=Garamond;fontStyle=0;movable=1;resizable=1;rotatable=1;deletable=1;editable=1;locked=0;connectable=1;labelBackgroundColor=none;" vertex="1" parent="AKFEIR48hMGHbQ7y2gEx-156">
          <mxGeometry x="449.26" y="10" width="140" height="30" as="geometry" />
        </mxCell>
      </root>
    </mxGraphModel>
  </diagram>
</mxfile>
